<?xml version="1.0" encoding="UTF-8"?>
<svg version="1.1" xmlns="http://www.w3.org/2000/svg" width="940" height="168">
<path d="M0 0 C10.56 0 21.12 0 32 0 C32 0.99 32 1.98 32 3 C32.66 3 33.32 3 34 3 C35.00401601 9.70671859 36.00008477 16.41458341 36.99072266 23.12329102 C37.328425 25.40383409 37.66792381 27.68411191 38.00927734 29.96411133 C38.50053582 33.24752258 38.98525648 36.53184373 39.46875 39.81640625 C39.62186646 40.83021866 39.77498291 41.84403107 39.93273926 42.88856506 C40.67658747 47.98643222 41.17602491 52.84812822 41 58 C41.66 58 42.32 58 43 58 C44.32 67.24 45.64 76.48 47 86 C47.99 85.67 48.98 85.34 50 85 C50.0424585 84.14269287 50.08491699 83.28538574 50.12866211 82.40209961 C50.74140178 71.70359408 52.07258777 61.1702189 53.5625 50.5625 C53.79930626 48.84837328 54.03563708 47.1341808 54.27148438 45.41992188 C54.84219844 41.27917226 55.41926791 37.13935598 56 33 C56.66 33 57.32 33 58 33 C57.97035156 31.91332031 57.94070312 30.82664062 57.91015625 29.70703125 C57.9113476 24.29948253 58.67301257 19.0318005 59.4375 13.6875 C59.57220703 12.69943359 59.70691406 11.71136719 59.84570312 10.69335938 C60.86121377 3.41635868 60.86121377 3.41635868 62 0 C72.56 0 83.12 0 94 0 C94 46.53 94 93.06 94 141 C86.41 141 78.82 141 71 141 C70.67 117.57 70.34 94.14 70 70 C69.67 72.64 69.34 75.28 69 78 C68.34 78 67.68 78 67 78 C67.03013184 79.08192627 67.06026367 80.16385254 67.09130859 81.27856445 C67.08694558 86.76791505 66.30768993 92.11642533 65.5390625 97.54296875 C65.31311905 99.1729052 65.31311905 99.1729052 65.08261108 100.83576965 C64.76418369 103.12128241 64.44297654 105.40640942 64.11914062 107.69116211 C63.62528043 111.18551581 63.14414011 114.68146362 62.6640625 118.17773438 C62.35232681 120.403753 62.03985218 122.6296683 61.7265625 124.85546875 C61.58376862 125.89825485 61.44097473 126.94104095 61.29385376 128.01542664 C61.15385956 128.99026505 61.01386536 129.96510345 60.86962891 130.96948242 C60.68975937 132.24900032 60.68975937 132.24900032 60.5062561 133.55436707 C59.95861239 136.19993617 59.07104496 138.52458894 58 141 C54.35418313 141.02887512 50.70839537 141.04675585 47.0625 141.0625 C46.02158203 141.07087891 44.98066406 141.07925781 43.90820312 141.08789062 C42.91884766 141.09111328 41.92949219 141.09433594 40.91015625 141.09765625 C39.99371338 141.10289307 39.07727051 141.10812988 38.13305664 141.11352539 C36 141 36 141 35 140 C34.32714477 136.81946023 33.91143588 133.59050753 33.4375 130.375 C33.29892578 129.48425781 33.16035156 128.59351563 33.01757812 127.67578125 C32.27729984 122.72357479 31.84227126 118.00617301 32 113 C31.34 113 30.68 113 30 113 C27.36 95.18 24.72 77.36 22 59 C21.67 86.06 21.34 113.12 21 141 C14.07 141 7.14 141 0 141 C0 94.47 0 47.94 0 0 Z " fill="#FFFFFF" transform="translate(3,10)"/>
<path d="M0 0 C9.57 0 19.14 0 29 0 C29.99 3.3 30.98 6.6 32 10 C32.50144531 11.29292969 33.00289063 12.58585937 33.51953125 13.91796875 C35.44523507 18.91625674 36.53769009 24.09145982 37.6875 29.3125 C37.91244141 30.30056641 38.13738281 31.28863281 38.36914062 32.30664062 C40 39.58850209 40 39.58850209 40 43 C40.66 43 41.32 43 42 43 C44.31 52.9 46.62 62.8 49 73 C49.33 48.91 49.66 24.82 50 0 C56.93 0 63.86 0 71 0 C71 46.53 71 93.06 71 141 C62.75 141 54.5 141 46 141 C44.9944534 136.91795963 43.9953512 132.83452677 43 128.75 C42.71382813 127.59113281 42.42765625 126.43226563 42.1328125 125.23828125 C41.86210937 124.12324219 41.59140625 123.00820312 41.3125 121.859375 C41.06113281 120.83295898 40.80976563 119.80654297 40.55078125 118.74902344 C40 116 40 116 40 112 C39.34 112 38.68 112 38 112 C36.99738393 107.80211662 36.00064571 103.60289389 35.00927734 99.40234375 C34.67136357 97.97422878 34.33186021 96.54648895 33.99072266 95.11914062 C33.50002088 93.06477399 33.0150938 91.00911616 32.53125 88.953125 C32.23798828 87.71723633 31.94472656 86.48134766 31.64257812 85.20800781 C31 82 31 82 31 78 C30.34 78 29.68 78 29 78 C26.69 68.43 24.38 58.86 22 49 C21.67 79.36 21.34 109.72 21 141 C14.07 141 7.14 141 0 141 C0 94.47 0 47.94 0 0 Z " fill="#FFFFFF" transform="translate(376,10)"/>
<path d="M0 0 C1.2890625 -0.00257812 2.578125 -0.00515625 3.90625 -0.0078125 C6.92209033 0.10364247 9.57792088 0.41695775 12.5 1.125 C12.5 1.785 12.5 2.445 12.5 3.125 C13.345625 3.186875 14.19125 3.24875 15.0625 3.3125 C21.74022191 4.89087063 25.28362258 8.35989415 28.875 14.125 C32.3999274 20.15696132 32.61563216 25.30270263 32.5 32.125 C33.16 32.125 33.82 32.125 34.5 32.125 C34.5 59.185 34.5 86.245 34.5 114.125 C33.84 114.125 33.18 114.125 32.5 114.125 C32.5825 115.053125 32.665 115.98125 32.75 116.9375 C32.73894574 122.35408599 30.86612907 127.30823725 28.5 132.125 C26.0625 134.5 26.0625 134.5 23.5 136.125 C22.79875 136.970625 22.0975 137.81625 21.375 138.6875 C13.54020164 145.33004643 2.24432286 144.90496181 -7.5 144.125 C-14.52784151 142.86050465 -21.93989232 141.06470986 -26.765625 135.5234375 C-27.42046875 134.52570313 -28.0753125 133.52796875 -28.75 132.5 C-29.41515625 131.51773438 -30.0803125 130.53546875 -30.765625 129.5234375 C-34.25800582 122.68025887 -34.79837231 115.59653004 -34.7746582 108.01611328 C-34.77976913 107.15464691 -34.78488007 106.29318054 -34.79014587 105.40560913 C-34.80393483 102.58543764 -34.80309319 99.76551349 -34.80078125 96.9453125 C-34.80467409 94.96670442 -34.80900997 92.98809716 -34.81376648 91.00949097 C-34.82120575 86.87234787 -34.82095412 82.73529015 -34.81567383 78.59814453 C-34.80988276 73.32054797 -34.82681277 68.04330276 -34.8500185 62.76576424 C-34.86481575 58.68201689 -34.8656194 54.598353 -34.86250877 50.51458359 C-34.86301899 48.56990742 -34.86819989 46.62522622 -34.87832069 44.68057632 C-34.96719487 25.2174351 -34.96719487 25.2174351 -31.5 16.125 C-30.84 16.125 -30.18 16.125 -29.5 16.125 C-29.273125 15.2175 -29.04625 14.31 -28.8125 13.375 C-26.53755424 7.74180098 -21.93088827 5.43601629 -16.5 3.125 C-15.18 3.125 -13.86 3.125 -12.5 3.125 C-12.5 2.465 -12.5 1.805 -12.5 1.125 C-8.29188662 0.10534176 -4.32250521 -0.00864501 0 0 Z M-8 25.375 C-10.61867393 30.1759022 -10.65289819 34.51110871 -10.66113281 39.90356445 C-10.66609772 40.68294373 -10.67106262 41.462323 -10.67617798 42.26531982 C-10.69076377 44.83964934 -10.6975957 47.41391723 -10.703125 49.98828125 C-10.7088795 51.78183493 -10.7146372 53.5753886 -10.72039795 55.36894226 C-10.73089781 59.12902106 -10.73674708 62.88907853 -10.74023438 66.64916992 C-10.74571626 71.45759186 -10.76974201 76.26573023 -10.79820633 81.0740633 C-10.81686777 84.77934075 -10.82204018 88.48455037 -10.82357025 92.18987083 C-10.82658951 93.96202329 -10.83459341 95.73417475 -10.84775543 97.5062809 C-10.86488913 99.99048819 -10.86291802 102.47400888 -10.85644531 104.95825195 C-10.8656601 105.68421066 -10.87487488 106.41016937 -10.8843689 107.15812683 C-10.83708001 112.97790958 -9.71342938 117.91157062 -5.5 122.125 C-1.20971018 122.77402223 2.52523275 122.55146067 6.5 120.8125 C8.76489937 119.198876 8.76489937 119.198876 9.5 116.125 C9.60675029 113.33187472 9.65725738 110.5633352 9.66113281 107.76977539 C9.66609772 106.91744827 9.67106262 106.06512115 9.67617798 105.18696594 C9.69079144 102.36552119 9.69759954 99.54413263 9.703125 96.72265625 C9.70887624 94.7635447 9.71463398 92.80443317 9.72039795 90.84532166 C9.73090501 86.73712908 9.7367499 82.62895607 9.74023438 78.52075195 C9.74572456 73.25352662 9.76976505 67.98655909 9.79820633 62.71941471 C9.81681599 58.67283875 9.82203737 54.62632516 9.82357025 50.57971001 C9.82660008 48.63761419 9.83463971 46.69551955 9.84775543 44.75346565 C9.8647842 42.03864943 9.86294372 39.3244669 9.85644531 36.60961914 C9.8656601 35.80584839 9.87487488 35.00207764 9.8843689 34.1739502 C9.85995548 30.92297002 9.72725057 28.54514962 8.16522217 25.6572113 C4.86877579 22.62407105 0.91765673 22.73190091 -3.33984375 22.7734375 C-5.78216192 22.97103336 -5.78216192 22.97103336 -8 25.375 Z " fill="#FFFFFF" transform="translate(330.5,8.875)"/>
<path d="M0 0 C1.18464844 -0.00257812 2.36929688 -0.00515625 3.58984375 -0.0078125 C6.83785743 0.1164085 9.87453717 0.51174303 13.0625 1.125 C13.0625 1.785 13.0625 2.445 13.0625 3.125 C14.361875 3.24875 14.361875 3.24875 15.6875 3.375 C21.90102273 4.75578283 26.11577578 8.38228768 29.65194702 13.54798889 C35.52315101 24.27439061 34.50654934 38.00457401 34.4609375 49.84765625 C34.46296448 51.72464612 34.46588108 53.60163522 34.46963501 55.47862244 C34.47402793 59.38922717 34.46772527 63.29962466 34.45361328 67.21020508 C34.43651137 72.18818416 34.44638844 77.16567815 34.46433067 82.14363956 C34.47524088 86.01215685 34.47168941 89.88056165 34.4639473 93.74908257 C34.46196585 95.58324684 34.46433106 97.41742179 34.47138596 99.25157356 C34.55215933 126.13944067 34.55215933 126.13944067 27.0625 134.125 C26.4025 134.125 25.7425 134.125 25.0625 134.125 C25.0625 134.785 25.0625 135.445 25.0625 136.125 C24.4025 136.125 23.7425 136.125 23.0625 136.125 C22.8975 136.723125 22.7325 137.32125 22.5625 137.9375 C19.78906365 141.98209467 14.84455826 142.7671176 10.22265625 143.6953125 C-1.72743055 145.32016979 -12.70474092 144.65654835 -22.9375 138.125 C-22.9375 137.465 -22.9375 136.805 -22.9375 136.125 C-23.5975 136.125 -24.2575 136.125 -24.9375 136.125 C-27.9375 132.66346154 -27.9375 132.66346154 -27.9375 130.125 C-28.5975 130.125 -29.2575 130.125 -29.9375 130.125 C-33.12484715 122.22592227 -34.0863426 114.9959781 -34.09863281 106.51855469 C-34.10359772 105.68664108 -34.10856262 104.85472748 -34.11367798 103.99760437 C-34.12820098 101.26401928 -34.13508507 98.53049222 -34.140625 95.796875 C-34.14345238 94.85719124 -34.14627975 93.91750748 -34.14919281 92.94934845 C-34.16414554 87.97648338 -34.17339971 83.00364703 -34.17773438 78.03076172 C-34.18321307 72.91903566 -34.20723976 67.80757674 -34.23570633 62.6959343 C-34.25441659 58.74258681 -34.25954276 54.78930262 -34.26107025 50.83591461 C-34.2640784 48.95263458 -34.27204408 47.06935517 -34.28525543 45.18611908 C-34.37299074 31.71865487 -34.45041021 18.77145792 -24.9375 8.125 C-22.65335113 6.36044355 -20.60150214 5.36185814 -17.9375 4.125 C-16.390625 3.2896875 -16.390625 3.2896875 -14.8125 2.4375 C-9.88181336 0.18653436 -5.38597315 -0.01169592 0 0 Z M-8.9375 28.125 C-9.33000334 31.13469266 -9.49527875 33.77663122 -9.47094727 36.78320312 C-9.47956284 37.64396957 -9.48817841 38.50473602 -9.49705505 39.3915863 C-9.51971386 42.23011547 -9.51297685 45.06765739 -9.50390625 47.90625 C-9.5091416 49.88253065 -9.51541776 51.8588088 -9.52268982 53.83508301 C-9.53309366 57.9743222 -9.52853231 62.1132176 -9.51391602 66.25244141 C-9.49672185 71.55567108 -9.52023149 76.85781796 -9.55540562 82.16092682 C-9.57736927 86.24106011 -9.57594074 90.32093385 -9.5676403 94.40110779 C-9.56682034 96.35633024 -9.57369228 98.31157167 -9.58841133 100.26673889 C-9.60583974 103.0007683 -9.59133006 105.73284588 -9.56860352 108.46679688 C-9.58029572 109.273181 -9.59198792 110.07956512 -9.60403442 110.91038513 C-9.53463857 115.01528953 -9.13003908 116.8850565 -6.52696228 120.12902832 C-3.26781439 122.64119733 -1.80682348 122.76608102 2.1328125 122.46875 C5.17637756 121.92657647 6.79230386 121.26165519 9.0625 119.125 C10.70539436 113.77775827 11.35468087 108.87312887 11.32128906 103.27539062 C11.3247937 102.53604782 11.32829834 101.79670502 11.33190918 101.03495789 C11.34063486 98.6169567 11.33491009 96.19925361 11.328125 93.78125 C11.32947429 92.08548934 11.33141701 90.38972907 11.33392334 88.69396973 C11.33686219 85.15027156 11.33261697 81.60667463 11.32324219 78.06298828 C11.3118484 73.53731476 11.31841452 69.01187852 11.33038712 64.48621368 C11.33763925 60.98763261 11.33530242 57.48910711 11.33013153 53.99052429 C11.3288043 52.32248404 11.33041002 50.65443863 11.33509064 48.98640442 C11.34021131 46.64900483 11.33236869 44.31198121 11.32128906 41.97460938 C11.32533752 41.29593307 11.32938599 40.61725677 11.33355713 39.91801453 C11.28692802 34.56586714 11.01048334 28.24091294 7.25 24.15625 C4.70596193 22.95691777 2.87223908 22.65926511 0.0625 22.625 C-0.783125 22.5940625 -1.62875 22.563125 -2.5 22.53125 C-6.10874148 23.41030241 -6.98250234 25.00278914 -8.9375 28.125 Z " fill="#FFFFFF" transform="translate(142.9375,8.875)"/>
<path d="M0 0 C23.1 0 46.2 0 70 0 C70 7.59 70 15.18 70 23 C62.08 23 54.16 23 46 23 C46 61.94 46 100.88 46 141 C38.41 141 30.82 141 23 141 C23 102.06 23 63.12 23 23 C15.41 23 7.82 23 0 23 C0 15.41 0 7.82 0 0 Z " fill="#FFFFFF" transform="translate(183,10)"/>
<path d="M0 0 C7.59 0 15.18 0 23 0 C23 46.53 23 93.06 23 141 C15.41 141 7.82 141 0 141 C0 94.47 0 47.94 0 0 Z " fill="#FFFFFF" transform="translate(260,10)"/>
<path d="M0 0 C7 0 7 0 8.78515625 1.55078125 C10.33329147 4.67194133 11.42178602 7.8656395 12.4375 11.1875 C13.79324461 15.44673383 15.16856226 19.6311924 17.0625 23.6875 C23 36.41071429 23 36.41071429 23 43 C23.66 43 24.32 43 25 43 C26.17400588 46.43503772 27.33793209 49.87340714 28.5 53.3125 C28.83386719 54.28896484 29.16773438 55.26542969 29.51171875 56.27148438 C29.82753906 57.20927734 30.14335938 58.14707031 30.46875 59.11328125 C30.90864258 60.40939331 30.90864258 60.40939331 31.35742188 61.73168945 C32 64 32 64 32 67 C32.66 67 33.32 67 34 67 C35.17400588 70.43503772 36.33793209 73.87340714 37.5 77.3125 C37.83386719 78.28896484 38.16773438 79.26542969 38.51171875 80.27148438 C38.82753906 81.20927734 39.14335938 82.14707031 39.46875 83.11328125 C39.76201172 83.97735596 40.05527344 84.84143066 40.35742188 85.73168945 C41 88 41 88 41 91 C41.66 91 42.32 91 43 91 C44.00736628 93.93502595 45.00460504 96.87339461 46 99.8125 C46.28617188 100.64587891 46.57234375 101.47925781 46.8671875 102.33789062 C47.13789062 103.14033203 47.40859375 103.94277344 47.6875 104.76953125 C47.93886719 105.50792236 48.19023438 106.24631348 48.44921875 107.00708008 C49 109 49 109 49 112 C49.66 112 50.32 112 51 112 C51.99 114.97 52.98 117.94 54 121 C54.33 81.07 54.66 41.14 55 0 C56.65 0 58.3 0 60 0 C61 1 61 1 61.12304783 3.30947971 C61.12166514 4.85670924 61.12166514 4.85670924 61.12025452 6.43519592 C61.12162918 7.61455215 61.12300385 8.79390839 61.12442017 10.00900269 C61.11902725 11.96726486 61.11902725 11.96726486 61.11352539 13.96508789 C61.11324352 15.34452818 61.11340125 16.72396861 61.1139679 18.10340881 C61.11425588 21.85944118 61.10835905 25.61544189 61.10139394 29.37146688 C61.09516051 33.29260045 61.09455661 37.21373467 61.09336853 41.13487244 C61.09025518 48.56511611 61.08204175 55.99534514 61.07201904 63.42558235 C61.06085801 71.88251638 61.05534748 80.3394511 61.05032361 88.79639065 C61.03985914 106.19760225 61.02225963 123.59879958 61 141 C58.36 141 55.72 141 53 141 C52.32586789 139.08594633 51.6609668 137.16863974 51 135.25 C50.62875 134.18265625 50.2575 133.1153125 49.875 132.015625 C49 129 49 129 49 125 C48.34 125 47.68 125 47 125 C46.72119995 124.18547363 46.72119995 124.18547363 46.43676758 123.35449219 C43.21732176 113.97692614 39.97398102 104.66845571 36.06640625 95.55078125 C33.88441266 90.33158046 32 85.68897868 32 80 C31.34 80 30.68 80 30 80 C29.77860352 79.35562988 29.55720703 78.71125977 29.32910156 78.04736328 C28.3052937 75.07235449 27.27766795 72.09867749 26.25 69.125 C25.72792969 67.60519531 25.72792969 67.60519531 25.1953125 66.0546875 C23.22945167 60.37553398 21.14678924 54.77325807 18.88378906 49.20605469 C17.7418348 46.35558543 16.72442091 43.47416249 15.75 40.5625 C15.24726562 39.07943359 15.24726562 39.07943359 14.734375 37.56640625 C14 35 14 35 14 32 C13.34 32 12.68 32 12 32 C10.68 28.04 9.36 24.08 8 20 C7.67 59.93 7.34 99.86 7 141 C4.69 141 2.38 141 0 141 C0 94.47 0 47.94 0 0 Z " fill="#FFFFFF" transform="translate(712,10)"/>
<path d="M0 0 C11.22 0 22.44 0 34 0 C34 0.66 34 1.32 34 2 C34.94359375 2.00386719 34.94359375 2.00386719 35.90625 2.0078125 C42.76890158 2.31787206 47.25688058 3.9148287 52 9 C56.97394896 16.70271263 56.21201982 26.46708234 56.25 35.25 C56.270625 36.42691406 56.29125 37.60382812 56.3125 38.81640625 C56.38450926 55.00048746 56.38450926 55.00048746 51.54760742 60.71630859 C47.79441075 64 47.79441075 64 45 64 C44.505 65.485 44.505 65.485 44 67 C44.86625 67.33 45.7325 67.66 46.625 68 C51.3535947 70.80213019 55.04414665 74.67637921 56.59765625 80.078125 C56.875 82 56.875 82 57 85 C57.66 85 58.32 85 59 85 C60.39582477 96.9891378 60.57854413 109.01997762 59 121 C58.34 121 57.68 121 57 121 C56.90203125 121.59167969 56.8040625 122.18335938 56.703125 122.79296875 C55.75710873 127.79217544 54.84450603 131.38849434 51 135 C50.01 135 49.02 135 48 135 C47.67 135.99 47.34 136.98 47 138 C39 141 39 141 0 141 C0 94.47 0 47.94 0 0 Z M7 7 C7 25.81 7 44.62 7 64 C15.91 64 24.82 64 34 64 C34 63.34 34 62.68 34 62 C35.051875 61.9175 36.10375 61.835 37.1875 61.75 C41.28732127 60.94347778 43.07721678 59.92278322 46 57 C46 56.34 46 55.68 46 55 C46.66 55 47.32 55 48 55 C49.55597141 50.84932651 50.25576955 47.39951451 50.265625 42.97265625 C50.26820313 41.85052734 50.27078125 40.72839844 50.2734375 39.57226562 C50.26183594 37.83493164 50.26183594 37.83493164 50.25 36.0625 C50.25773438 34.90814453 50.26546875 33.75378906 50.2734375 32.56445312 C50.25989531 26.66344374 50.03911501 21.55901593 48 16 C47.34 16 46.68 16 46 16 C45.773125 15.236875 45.54625 14.47375 45.3125 13.6875 C43.70107285 10.38791107 42.27690673 9.56043177 39 8 C28.64676174 5.41169043 17.67187373 7 7 7 Z M7 70 C7 91.78 7 113.56 7 136 C23.15931773 136.79415478 23.15931773 136.79415478 39 135 C39 134.34 39 133.68 39 133 C39.53625 132.9175 40.0725 132.835 40.625 132.75 C44.53684261 131.51468128 47.93034729 129.89246249 50.015625 126.203125 C55.2767104 112.89567369 55.33277357 92.10980501 49.6875 78.9375 C47.6674123 76.61814005 45.84832861 76.04938422 43 75 C42.505 73.515 42.505 73.515 42 72 C31.72623989 68.71796807 31.72623989 68.71796807 7 70 Z " fill="#FFFFFF" transform="translate(492,10)"/>
<path d="M0 0 C11.14813569 -0.66888814 20.60650996 -1.03715694 30 6 C32.32046094 8.38772068 34 10.53257747 34 14 C34.66 14 35.32 14 36 14 C36.49405577 15.43245099 36.96910417 16.87145445 37.4375 18.3125 C37.70433594 19.11300781 37.97117187 19.91351562 38.24609375 20.73828125 C40.56704372 30.77969693 40.16301253 41.26581395 40.16796875 51.515625 C40.17119205 53.10064726 40.17455688 54.68566924 40.17805481 56.27069092 C40.18400778 59.57874235 40.18589869 62.88676781 40.18530273 66.19482422 C40.18520134 70.39125583 40.19884707 74.58751739 40.21607494 78.78390884 C40.22730483 82.0545729 40.2292186 85.32519726 40.22869301 88.5958786 C40.2298569 90.14091324 40.23418674 91.68594947 40.24202538 93.23096466 C40.38702442 124.75960972 40.38702442 124.75960972 31 135 C30.34 135 29.68 135 29 135 C28.835 135.598125 28.67 136.19625 28.5 136.8125 C26.19348559 140.17616685 22.80030374 140.99868177 19 142 C15.7980386 142.37390993 12.65751891 142.37674619 9.4375 142.3125 C8.62603516 142.31572266 7.81457031 142.31894531 6.97851562 142.32226562 C0.46160754 142.26440768 -6.06244184 141.74005584 -11 137 C-11 136.34 -11 135.68 -11 135 C-11.61617187 134.74992188 -12.23234375 134.49984375 -12.8671875 134.2421875 C-15.37466622 132.7817878 -15.95147159 131.73831958 -17.125 129.125 C-17.43695312 128.44695312 -17.74890625 127.76890625 -18.0703125 127.0703125 C-18.37710938 126.38710937 -18.68390625 125.70390625 -19 125 C-19.34804688 124.37867188 -19.69609375 123.75734375 -20.0546875 123.1171875 C-22.41623037 117.82811215 -22.14391152 112.0148969 -22.12939453 106.3359375 C-22.13114685 105.48638489 -22.13289917 104.63683228 -22.13470459 103.76153564 C-22.13908947 100.9660027 -22.13619697 98.17053353 -22.1328125 95.375 C-22.13348651 93.42496732 -22.13445734 91.47493473 -22.13571167 89.52490234 C-22.13718408 85.4430257 -22.13504873 81.36117097 -22.13037109 77.27929688 C-22.12467409 72.05392715 -22.12795553 66.8286088 -22.13394356 61.60324097 C-22.13756146 57.5780397 -22.13640492 53.55285056 -22.13381577 49.52764893 C-22.1331499 47.60117588 -22.133963 45.67470173 -22.13629532 43.74822998 C-22.138842 41.05347792 -22.13495282 38.35880843 -22.12939453 35.6640625 C-22.13141876 34.87219543 -22.13344299 34.08032837 -22.13552856 33.26446533 C-22.11952979 29.06581422 -21.82768271 25.13661635 -21 21 C-20.34 21 -19.68 21 -19 21 C-18.9071875 19.7625 -18.9071875 19.7625 -18.8125 18.5 C-17.35098622 12.20424831 -14.40923669 7.60956626 -9 4 C-5.90652994 2.2482054 -3.61403431 1.43530714 0 2 C0 1.34 0 0.68 0 0 Z M-9.375 13.125 C-16.5991728 23.00153505 -15.45784988 35.12346676 -15.43359375 46.76953125 C-15.43816331 48.69707929 -15.44347116 50.6246257 -15.44947815 52.5521698 C-15.45838116 56.58082724 -15.45601912 60.60928617 -15.44604492 64.63793945 C-15.43457242 69.76858251 -15.45475495 74.89853552 -15.48396206 80.02908802 C-15.50242248 84.00742354 -15.50201187 87.9855968 -15.49632454 91.96396446 C-15.49617245 93.85395969 -15.50212222 95.74396673 -15.51461601 97.63392067 C-16.01534856 114.66061179 -16.01534856 114.66061179 -9.48191833 129.89118958 C-7.40880686 131.72484526 -5.83801415 133 -3 133 C-3 133.66 -3 134.32 -3 135 C4.60108041 138.28695369 13.35254394 137.99248281 21 135 C21.33 134.34 21.66 133.68 22 133 C23.1446875 132.443125 23.1446875 132.443125 24.3125 131.875 C29.56262249 128.21212385 31.003141 122.64104837 32.1875 116.5625 C32.32542969 115.71816406 32.46335937 114.87382813 32.60546875 114.00390625 C33 112 33 112 34 111 C34.09498646 108.56603981 34.12558417 106.16057048 34.11352539 103.72631836 C34.11367142 102.96539383 34.11381744 102.2044693 34.1139679 101.42048645 C34.11326862 98.89357702 34.10547555 96.36674038 34.09765625 93.83984375 C34.09579212 92.0924941 34.0943682 90.34514393 34.09336853 88.59779358 C34.08954293 83.98968066 34.07971229 79.38159905 34.06866455 74.77349854 C34.05845134 70.07491479 34.0538711 65.37632601 34.04882812 60.67773438 C34.03809005 51.45180913 34.02101313 42.22590716 34 33 C33.34 33 32.68 33 32 33 C32.03480469 32.443125 32.06960938 31.88625 32.10546875 31.3125 C32.39887432 23.04125715 30.28432995 16.4921768 25 10 C14.3121161 3.40534823 -0.44372705 3.8426205 -9.375 13.125 Z " fill="#FFFFFF" transform="translate(586,10)"/>
<path d="M0 0 C1.98 0 3.96 0 6 0 C6.33 39.27 6.66 78.54 7 119 C7.66 119 8.32 119 9 119 C9.61875 120.8253125 9.61875 120.8253125 10.25 122.6875 C12.4517305 128.51076853 15.36536407 132.18268203 21 135 C28.40201753 137.24398005 35.224275 136.523377 42 133 C42.763125 132.690625 43.52625 132.38125 44.3125 132.0625 C48.02898918 129.72248829 48.73310628 124.98166597 50 121 C50.66 121 51.32 121 52 121 C52.00423194 120.38854944 52.00846388 119.77709888 52.01282406 119.14711952 C52.11603446 104.28357064 52.2246577 89.42006878 52.33933926 74.55660439 C52.39466675 67.3688076 52.44814797 60.18100585 52.49731445 52.99316406 C52.5401621 46.72977799 52.58644155 40.46642839 52.63687855 34.20309865 C52.66347484 30.88533444 52.68781603 27.56757829 52.70907402 24.24977493 C52.73306978 20.55009137 52.76313092 16.85050468 52.79467773 13.15087891 C52.8004332 12.04533157 52.80618866 10.93978424 52.81211853 9.80073547 C52.82680176 8.29468498 52.82680176 8.29468498 52.84178162 6.75820923 C52.84823417 5.88250589 52.85468672 5.00680256 52.8613348 4.10456276 C53 2 53 2 54 0 C55.65 0 57.3 0 59 0 C59.07030302 14.91723391 59.12309194 29.83445491 59.15543652 44.75181961 C59.17085862 51.67932955 59.19185815 58.60673613 59.22631836 65.53417969 C59.25958835 72.22558759 59.27687791 78.91686619 59.28463173 85.60836029 C59.29015409 88.15509475 59.3009377 90.70182368 59.31719017 93.24851227 C59.3391207 96.82888742 59.34196036 100.40882579 59.34057617 103.98925781 C59.351362 105.03080017 59.36214783 106.07234253 59.3732605 107.14544678 C59.33929219 115.32073465 58.63023871 124.05464194 54 131 C53.34 131 52.68 131 52 131 C51.773125 131.556875 51.54625 132.11375 51.3125 132.6875 C49.1042921 136.57815201 46.52036267 139.34744494 42.37890625 141.125 C38.24308759 142.19600969 34.44328902 142.38387918 30.1875 142.375 C28.99036377 142.37258301 28.99036377 142.37258301 27.76904297 142.37011719 C20.52011905 142.21906709 15.29762126 140.76287187 9.6875 136.0625 C9.130625 135.381875 8.57375 134.70125 8 134 C7.319375 133.278125 6.63875 132.55625 5.9375 131.8125 C-0.35188155 122.68275259 -0.15118882 111.48037608 -0.11352539 100.81054688 C-0.11367142 99.71697876 -0.11381744 98.62341064 -0.1139679 97.4967041 C-0.11327462 93.90403213 -0.1055097 90.31141285 -0.09765625 86.71875 C-0.09578999 84.2191165 -0.09436707 81.71948263 -0.09336853 79.21984863 C-0.08994844 73.32688905 -0.08207746 67.43394874 -0.07201904 61.54099703 C-0.05970964 54.16795969 -0.05436646 46.79491999 -0.04882812 39.421875 C-0.03811969 26.28124051 -0.02125659 13.14062144 0 0 Z " fill="#FFFFFF" transform="translate(639,10)"/>
<path d="M0 0 C1.65 0 3.3 0 5 0 C8.2340372 5.95291803 10.90881749 12.04967132 13.3125 18.375 C13.57885254 19.06464844 13.84520508 19.75429688 14.11962891 20.46484375 C15.39589654 23.89057067 16 26.29359931 16 30 C16.66 30 17.32 30 18 30 C19.17461555 33.10121711 20.33830456 36.20642241 21.5 39.3125 C21.83386719 40.19357422 22.16773438 41.07464844 22.51171875 41.98242188 C22.82753906 42.82998047 23.14335938 43.67753906 23.46875 44.55078125 C23.76201172 45.33106689 24.05527344 46.11135254 24.35742188 46.9152832 C25 49 25 49 25 52 C25.66 52 26.32 52 27 52 C28.00777029 54.74737377 29.00641446 57.49749952 30 60.25 C30.28617188 61.02730469 30.57234375 61.80460937 30.8671875 62.60546875 C31.13789062 63.35957031 31.40859375 64.11367187 31.6875 64.890625 C31.93886719 65.58188477 32.19023438 66.27314453 32.44921875 66.98535156 C33 69 33 69 33 73 C33.99 73 34.98 73 36 73 C36.24234375 72.32195312 36.4846875 71.64390625 36.734375 70.9453125 C38.39712946 66.32797126 40.08478301 61.73232822 41.9375 57.1875 C44.50008452 50.86781946 46.7385897 44.43204406 49 38 C49.66 38 50.32 38 51 38 C51.10183594 37.19304688 51.20367188 36.38609375 51.30859375 35.5546875 C52.15018384 31.22786838 53.55319031 27.25721679 55.0625 23.125 C55.34416016 22.34125 55.62582031 21.5575 55.91601562 20.75 C56.60613782 18.83169424 57.30244316 16.91561481 58 15 C58.66 15 59.32 15 60 15 C60.18175781 14.12988281 60.18175781 14.12988281 60.3671875 13.2421875 C61.33735474 8.71971558 62.43397783 4.36249034 64 0 C65.98 0 67.96 0 70 0 C71.03155049 2.67696844 71.04658953 3.85682761 70.14453125 6.62890625 C69.70496094 7.59699219 69.26539063 8.56507812 68.8125 9.5625 C67.04753117 13.57024689 65.3920412 17.556603 63.9375 21.6875 C62.77558843 24.95479534 61.53025248 28.10900969 60.0625 31.25 C57.14161804 37.61542801 55.14034768 44.34211521 53 51 C52.34 51 51.68 51 51 51 C50.773125 52.03125 50.54625 53.0625 50.3125 54.125 C48.71790079 60.57323328 46.29100064 66.7740746 44 73 C43.34 73 42.68 73 42 73 C41.87625 73.86625 41.7525 74.7325 41.625 75.625 C41 79 41 79 39.98086548 81.84707642 C38.99533755 85.01498711 38.72600066 87.51795107 38.68115234 90.82177734 C38.66128265 91.94248627 38.64141296 93.06319519 38.62094116 94.21786499 C38.60361435 96.00881088 38.60361435 96.00881088 38.5859375 97.8359375 C38.56657135 99.07042633 38.5472052 100.30491516 38.5272522 101.57681274 C38.46759903 105.50947212 38.42112737 109.442161 38.375 113.375 C38.33787457 116.04560453 38.29775475 118.71615364 38.2578125 121.38671875 C38.16190904 127.92437114 38.07681971 134.46209702 38 141 C35.69 141 33.38 141 31 141 C31.00079559 140.29637329 31.00159119 139.59274658 31.00241089 138.86779785 C31.0046398 132.16187887 30.97766297 125.45674349 30.9197216 118.75106049 C30.89092931 115.3053776 30.87254228 111.86036116 30.87988281 108.41455078 C30.94037609 86.48695418 30.94037609 86.48695418 24 66 C23.09137495 63.85955178 22.19348307 61.71447279 21.3125 59.5625 C20.91289063 58.61632812 20.51328125 57.67015625 20.1015625 56.6953125 C16 46.65957447 16 46.65957447 16 42 C15.34 42 14.68 42 14 42 C12.82569926 38.7318568 11.66188744 35.46007485 10.5 32.1875 C10.16613281 31.25873047 9.83226562 30.32996094 9.48828125 29.37304688 C9.17246094 28.48037109 8.85664062 27.58769531 8.53125 26.66796875 C8.09135742 25.43469849 8.09135742 25.43469849 7.64257812 24.17651367 C7 22 7 22 7 19 C6.34 19 5.68 19 5 19 C4.15665671 16.77417611 3.32521449 14.54503974 2.5 12.3125 C2.14228516 11.37374023 2.14228516 11.37374023 1.77734375 10.41601562 C0.4587275 6.81807701 -0.29329235 3.83479747 0 0 Z " fill="#FFFFFF" transform="translate(861,10)"/>
<path d="M0 0 C21.78 0 43.56 0 66 0 C66 2.31 66 4.62 66 7 C56.1 7 46.2 7 36 7 C36 51.22 36 95.44 36 141 C33.69 141 31.38 141 29 141 C29 96.78 29 52.56 29 7 C19.1 7 9.2 7 -1 7 C-0.67 4.69 -0.34 2.38 0 0 Z " fill="#FFFFFF" transform="translate(784,10)"/>
</svg>
